<?xml version="1.0" encoding="utf-8"?>
<!-- Generator: Adobe Illustrator 19.0.1, SVG Export Plug-In . SVG Version: 6.00 Build 0)  -->
<svg version="1.1" id="Layer_1" xmlns="http://www.w3.org/2000/svg" xmlns:xlink="http://www.w3.org/1999/xlink" x="0px" y="0px"
	 viewBox="0 0 3727.9 4304.4" style="enable-background:new 0 0 3727.9 4304.4;" xml:space="preserve">
<style type="text/css">
	.st0{fill:none;}
	.st1{fill:#FFFFFF;}
	.st2{fill:#CE0000;}
</style>
<g>
	<polygon class="st0" points="3615.4,1197.9 3615.4,1094.6 1871.4,87.6 127.4,1094.6 127.4,1197.9 1871.4,190.9 	"/>
	<polygon points="1871.4,237.1 3615.4,1244 3615.4,1197.9 1871.4,190.9 127.4,1197.9 127.4,1244 	"/>
	<polyline points="1871.4,70.7 87.4,1100.5 87.4,1250 127.4,1226.9 127.4,1123.6 1871.4,116.6 3615.4,1123.6 3615.4,1226.9 
		3655.4,1250 3655.4,1101.1 	"/>
	<polygon points="127.4,2963.5 127.4,1244 127.4,1197.9 87.4,1221 87.4,2986.6 127.4,3009.7 	"/>
	<polyline points="3655.3,1221 3615.4,1197.9 3615.4,1244 3615.4,2977.5 3615.4,3023.7 3655.3,3000.6 	"/>
</g>
<g>
	<polygon class="st0" points="127.4,3105.4 127.4,3208.7 1871.4,4215.6 3615.4,3208.7 3615.4,3105.4 1871.4,4112.4 	"/>
	<polygon points="1871.4,4066.2 127.4,3059.2 127.4,3105.4 1871.4,4112.4 3615.4,3105.4 3615.4,3059.2 	"/>
	<polyline points="1871.4,4233 3655.4,3202.8 3655.4,3053.3 3615.4,3076.4 3615.4,3179.7 1871.4,4186.6 127.4,3179.7 127.4,3076.4 
		87.4,3053.3 87.4,3203.1 	"/>
	<polygon points="3615.4,1339.8 3615.4,3059.2 3615.4,3105.4 3655.4,3082.3 3655.4,1316.7 3615.4,1293.6 	"/>
	<polyline points="87.3,3082.3 127.4,3105.4 127.4,3059.2 127.4,1325.8 127.4,1279.6 87.3,1302.7 	"/>
</g>
<path d="M1870.4,190.9l-1599,923.4V2961l1599,923.4l1599-923.4V1114.3L1870.4,190.9z M3429.4,2937.9l-1559,900.3l-1559-900.3V1137.4
	l1559-900.3l1559,900.3V2937.9z"/>
<polygon points="1612.3,1836.4 1612.8,2559.8 985,2921.2 985.8,2198.1 "/>
<polygon class="st1" points="1025.7,2221.2 1572.3,1905.6 1572.8,2536.6 1025,2851.9 "/>
<polygon points="1065.7,2244.3 1532.4,1974.9 1532.8,2513.5 1065.1,2782.7 "/>
<polygon class="st1" points="1105.7,2267.4 1492.4,2044.1 1492.7,2490.4 1105.2,2713.5 "/>
<polygon points="551.6,1275.6 778.5,1144.6 778.7,1406.2 551.3,1537 "/>
<polygon class="st1" points="591.6,1298.7 738.6,1213.9 738.7,1383 591.4,1467.8 "/>
<polygon points="1766.6,1330.6 1993.5,1199.6 1993.7,1461.2 1766.3,1592 "/>
<polygon class="st1" points="1806.6,1353.7 1953.6,1268.9 1953.7,1438 1806.4,1522.8 "/>
<polygon class="st1" points="1806.6,1091.7 1953.6,1006.9 1953.7,1176 1806.4,1260.8 "/>
<polygon points="1846.6,1114.8 1913.6,1076.1 1913.7,1152.9 1846.5,1191.6 "/>
<polygon points="1732.6,3160.8 1799.6,3122.1 1799.7,3198.9 1732.5,3237.6 "/>
<polygon points="1927.6,3241.6 2154.5,3110.6 2154.7,3372.2 1927.3,3503 "/>
<polygon class="st1" points="1967.6,3264.7 2114.6,3179.9 2114.7,3349 1967.4,3433.8 "/>
<polygon points="1419.6,2921.6 1646.5,2790.6 1646.7,3052.2 1419.3,3183 "/>
<polygon class="st1" points="1459.6,2944.7 1606.6,2859.9 1606.7,3029 1459.4,3113.8 "/>
<polygon points="2218.2,750.8 2217.6,1474.2 2845.5,1835.6 2844.7,1112.5 "/>
<polygon class="st1" points="2804.7,1135.6 2258.1,820 2257.6,1451.1 2805.4,1766.4 "/>
<polygon class="st2" points="2297.7,1428 2298.1,889.3 2764.7,1158.7 2765.3,1697.2 "/>
<polygon class="st1" points="2337.7,1404.8 2338,958.6 2724.7,1181.8 2725.2,1627.9 "/>
<polygon class="st1" points="2417.7,1358.6 2417.9,1097.1 2644.8,1228.1 2645.1,1489.5 "/>
<polygon points="3027.7,1627.6 3027.9,1366.1 3254.8,1497.1 3255.1,1758.5 "/>
<polygon class="st1" points="3067.7,1604.5 3067.9,1435.3 3214.8,1520.2 3215,1689.3 "/>
<polygon points="631.7,2476.4 631.8,2399.6 698.8,2438.3 698.9,2515 "/>
<polygon points="3107.7,1874.4 3107.8,1797.6 3174.8,1836.3 3174.9,1913 "/>
<polygon points="2827.9,1861.2 2201.7,1499.7 1573.4,1861.5 1572.9,2584.9 2200.7,2946.3 2199.9,2223.2 "/>
<polygon class="st1" points="1612.9,2561.8 1613.4,1884.6 2201.7,1545.9 2747.9,1861.2 2159.9,2200.1 2160.6,2877.1 "/>
<polygon points="1652.9,2538.7 1653.4,1907.8 2201.7,1592.1 2667.8,1861.2 2119.9,2177 2120.6,2807.9 "/>
<polygon class="st1" points="1692.9,2515.6 1693.4,1930.9 2201.6,1638.3 2587.8,1861.2 2079.9,2153.9 2080.5,2738.6 "/>
<polygon points="984,1516.6 357.8,1878.1 985.8,2240.1 1611,1879.1 1612.3,1879.8 1612.8,1156.4 985,795 "/>
<polygon class="st1" points="437.8,1878 1023.9,1539.7 1024.9,864.2 1572.8,1179.6 1572.3,1855.2 985.7,2193.9 "/>
<polygon points="517.9,1878 1063.9,1562.8 1064.8,933.3 1532.8,1202.7 1532.3,1832.1 985.7,2147.7 "/>
<polygon class="st1" points="597.9,1878 1103.9,1585.9 1104.7,1002.4 1492.7,1225.8 1492.3,1809 985.7,2101.5 "/>
<polygon points="2746.5,2536 2120.3,2897.5 2748.3,3259.5 3373.5,2898.5 3374.8,2899.3 3375.4,2175.9 2747.5,1814.5 "/>
<polygon class="st1" points="2200.4,2897.5 2786.5,2559.1 2787.4,1883.6 3335.3,2199 3334.9,2874.7 2748.3,3213.3 "/>
<polygon points="2280.4,2897.5 2826.5,2582.3 2827.3,1952.7 3295.3,2222.1 3294.9,2851.6 2748.3,3167.2 "/>
<polygon class="st1" points="2360.5,2897.4 2866.4,2605.4 2867.2,2021.9 3255.3,2245.2 3254.9,2828.5 2748.3,3121 "/>
<path d="M1869.9,69.9L165.4,1053.8v1967.7l1704.5,983.9l1704.5-983.9V1053.8L1869.9,69.9z M3514.4,2986.8L1869.9,3936L225.4,2986.8
	V1088.4l1644.5-949.2l1644.5,949.2V2986.8z"/>
<path class="st2" d="M1871.2,70.1 M1871.1,3936.2 M1870.4,4005.3l1704.9-983.8l-61-34.7l-1645.1,949.3v68.9 M1869.4,139.1v-69
	L165.6,1053.9l60.7,34.6l1643.9-949.4"/>
</svg>
